<svg width="241" height="182" viewBox="0 0 241 182" fill="none" xmlns="http://www.w3.org/2000/svg">
<path fill-rule="evenodd" clip-rule="evenodd" d="M241 113C241 151.108 187.05 182 120.5 182C53.9497 182 0 151.108 0 113C0 112.666 0.00414169 112.333 0.0123973 112H0V90H6.85668C23.3988 63.2006 68.0335 44 120.5 44C172.966 44 217.601 63.2006 234.143 90H241V112H240.988C240.996 112.333 241 112.666 241 113Z" fill="#CACACA"/>
<path fill-rule="evenodd" clip-rule="evenodd" d="M120.5 158C187.05 158 241 127.108 241 89C241 88.6661 240.996 88.3328 240.988 88H241V66H234.143C217.601 39.2006 172.966 20 120.5 20C68.0335 20 23.3988 39.2006 6.85668 66H0V88H0.0123973C0.00414169 88.3328 0 88.6661 0 89C0 127.108 53.9497 158 120.5 158Z" fill="#010101"/>
<ellipse cx="120.5" cy="69" rx="120.5" ry="69" fill="#3B3B3B"/>
</svg>
