<svg width="624" height="624" viewBox="0 0 624 624" fill="none" xmlns="http://www.w3.org/2000/svg">
<rect x="2.5" y="2.5" width="619" height="619" stroke="black" stroke-width="5"/>
<rect x="3.5" y="3.5" width="78" height="78" fill="#48AA27" stroke="black" stroke-width="3"/>
<rect x="3.5" y="80.5" width="78" height="78" fill="#48AA27" stroke="black" stroke-width="3"/>
<rect x="3.5" y="157.5" width="78" height="78" fill="#48AA27" stroke="black" stroke-width="3"/>
<rect x="3.5" y="234.5" width="78" height="78" fill="#48AA27" stroke="black" stroke-width="3"/>
<rect x="3.5" y="311.5" width="78" height="78" fill="#48AA27" stroke="black" stroke-width="3"/>
<rect x="3.5" y="388.5" width="78" height="78" fill="#48AA27" stroke="black" stroke-width="3"/>
<rect x="3.5" y="465.5" width="78" height="78" fill="#48AA27" stroke="black" stroke-width="3"/>
<rect x="3.5" y="542.5" width="78" height="78" fill="#48AA27" stroke="black" stroke-width="3"/>
<rect x="80.5" y="3.5" width="78" height="78" fill="#48AA27" stroke="black" stroke-width="3"/>
<rect x="80.5" y="80.5" width="78" height="78" fill="#48AA27" stroke="black" stroke-width="3"/>
<rect x="80.5" y="157.5" width="78" height="78" fill="#48AA27" stroke="black" stroke-width="3"/>
<rect x="80.5" y="234.5" width="78" height="78" fill="#48AA27" stroke="black" stroke-width="3"/>
<rect x="80.5" y="311.5" width="78" height="78" fill="#48AA27" stroke="black" stroke-width="3"/>
<rect x="80.5" y="388.5" width="78" height="78" fill="#48AA27" stroke="black" stroke-width="3"/>
<rect x="80.5" y="465.5" width="78" height="78" fill="#48AA27" stroke="black" stroke-width="3"/>
<rect x="80.5" y="542.5" width="78" height="78" fill="#48AA27" stroke="black" stroke-width="3"/>
<rect x="157.5" y="3.5" width="78" height="78" fill="#48AA27" stroke="black" stroke-width="3"/>
<rect x="157.5" y="80.5" width="78" height="78" fill="#48AA27" stroke="black" stroke-width="3"/>
<rect x="157.5" y="157.5" width="78" height="78" fill="#48AA27" stroke="black" stroke-width="3"/>
<rect x="157.5" y="234.5" width="78" height="78" fill="#48AA27" stroke="black" stroke-width="3"/>
<rect x="157.5" y="311.5" width="78" height="78" fill="#48AA27" stroke="black" stroke-width="3"/>
<rect x="157.5" y="388.5" width="78" height="78" fill="#48AA27" stroke="black" stroke-width="3"/>
<rect x="157.5" y="465.5" width="78" height="78" fill="#48AA27" stroke="black" stroke-width="3"/>
<rect x="157.5" y="542.5" width="78" height="78" fill="#48AA27" stroke="black" stroke-width="3"/>
<rect x="234.5" y="3.5" width="78" height="78" fill="#48AA27" stroke="black" stroke-width="3"/>
<rect x="234.5" y="80.5" width="78" height="78" fill="#48AA27" stroke="black" stroke-width="3"/>
<rect x="234.5" y="157.5" width="78" height="78" fill="#48AA27" stroke="black" stroke-width="3"/>
<rect x="234.5" y="234.5" width="78" height="78" fill="#48AA27" stroke="black" stroke-width="3"/>
<rect x="234.5" y="311.5" width="78" height="78" fill="#48AA27" stroke="black" stroke-width="3"/>
<rect x="234.5" y="388.5" width="78" height="78" fill="#48AA27" stroke="black" stroke-width="3"/>
<rect x="234.5" y="465.5" width="78" height="78" fill="#48AA27" stroke="black" stroke-width="3"/>
<rect x="234.5" y="542.5" width="78" height="78" fill="#48AA27" stroke="black" stroke-width="3"/>
<rect x="311.5" y="3.5" width="78" height="78" fill="#48AA27" stroke="black" stroke-width="3"/>
<rect x="311.5" y="80.5" width="78" height="78" fill="#48AA27" stroke="black" stroke-width="3"/>
<rect x="311.5" y="157.5" width="78" height="78" fill="#48AA27" stroke="black" stroke-width="3"/>
<rect x="311.5" y="234.5" width="78" height="78" fill="#48AA27" stroke="black" stroke-width="3"/>
<rect x="311.5" y="311.5" width="78" height="78" fill="#48AA27" stroke="black" stroke-width="3"/>
<rect x="311.5" y="388.5" width="78" height="78" fill="#48AA27" stroke="black" stroke-width="3"/>
<rect x="311.5" y="465.5" width="78" height="78" fill="#48AA27" stroke="black" stroke-width="3"/>
<rect x="311.5" y="542.5" width="78" height="78" fill="#48AA27" stroke="black" stroke-width="3"/>
<rect x="388.5" y="3.5" width="78" height="78" fill="#48AA27" stroke="black" stroke-width="3"/>
<rect x="388.5" y="80.5" width="78" height="78" fill="#48AA27" stroke="black" stroke-width="3"/>
<rect x="388.5" y="157.5" width="78" height="78" fill="#48AA27" stroke="black" stroke-width="3"/>
<rect x="388.5" y="234.5" width="78" height="78" fill="#48AA27" stroke="black" stroke-width="3"/>
<rect x="388.5" y="311.5" width="78" height="78" fill="#48AA27" stroke="black" stroke-width="3"/>
<rect x="388.5" y="388.5" width="78" height="78" fill="#48AA27" stroke="black" stroke-width="3"/>
<rect x="388.5" y="465.5" width="78" height="78" fill="#48AA27" stroke="black" stroke-width="3"/>
<rect x="388.5" y="542.5" width="78" height="78" fill="#48AA27" stroke="black" stroke-width="3"/>
<rect x="465.5" y="3.5" width="78" height="78" fill="#48AA27" stroke="black" stroke-width="3"/>
<rect x="465.5" y="80.5" width="78" height="78" fill="#48AA27" stroke="black" stroke-width="3"/>
<rect x="465.5" y="157.5" width="78" height="78" fill="#48AA27" stroke="black" stroke-width="3"/>
<rect x="465.5" y="234.5" width="78" height="78" fill="#48AA27" stroke="black" stroke-width="3"/>
<rect x="465.5" y="311.5" width="78" height="78" fill="#48AA27" stroke="black" stroke-width="3"/>
<rect x="465.5" y="388.5" width="78" height="78" fill="#48AA27" stroke="black" stroke-width="3"/>
<rect x="465.5" y="465.5" width="78" height="78" fill="#48AA27" stroke="black" stroke-width="3"/>
<rect x="465.5" y="542.5" width="78" height="78" fill="#48AA27" stroke="black" stroke-width="3"/>
<rect x="542.5" y="3.5" width="78" height="78" fill="#48AA27" stroke="black" stroke-width="3"/>
<rect x="542.5" y="80.5" width="78" height="78" fill="#48AA27" stroke="black" stroke-width="3"/>
<rect x="542.5" y="157.5" width="78" height="78" fill="#48AA27" stroke="black" stroke-width="3"/>
<rect x="542.5" y="234.5" width="78" height="78" fill="#48AA27" stroke="black" stroke-width="3"/>
<rect x="542.5" y="311.5" width="78" height="78" fill="#48AA27" stroke="black" stroke-width="3"/>
<rect x="542.5" y="388.5" width="78" height="78" fill="#48AA27" stroke="black" stroke-width="3"/>
<rect x="542.5" y="465.5" width="78" height="78" fill="#48AA27" stroke="black" stroke-width="3"/>
<rect x="542.5" y="542.5" width="78" height="78" fill="#48AA27" stroke="black" stroke-width="3"/>
<circle cx="157.5" cy="157.5" r="6.5" fill="black"/>
<circle cx="157.5" cy="466.5" r="6.5" fill="black"/>
<circle cx="465.5" cy="157.5" r="6.5" fill="black"/>
<circle cx="465.5" cy="466.5" r="6.5" fill="black"/>
</svg>
